<svg width="32" height="32" viewBox="0 0 32 32" fill="none" xmlns="http://www.w3.org/2000/svg">
<path d="M2.66666 12V8.66667C2.66666 5.34667 5.34666 2.66667 8.66666 2.66667H12" stroke="white" stroke-width="2" stroke-linecap="round" stroke-linejoin="round"/>
<path d="M20 2.66667H23.3333C26.6533 2.66667 29.3333 5.34667 29.3333 8.66667V12" stroke="white" stroke-width="2" stroke-linecap="round" stroke-linejoin="round"/>
<path d="M29.3333 21.3333V23.3333C29.3333 26.6533 26.6533 29.3333 23.3333 29.3333H21.3333" stroke="white" stroke-width="2" stroke-linecap="round" stroke-linejoin="round"/>
<path d="M12 29.3333H8.66666C5.34666 29.3333 2.66666 26.6533 2.66666 23.3333V20" stroke="white" stroke-width="2" stroke-linecap="round" stroke-linejoin="round"/>
<path d="M22.6667 12.6667V19.3333C22.6667 22 21.3333 23.3333 18.6667 23.3333H13.3333C10.6667 23.3333 9.33334 22 9.33334 19.3333V12.6667C9.33334 10 10.6667 8.66667 13.3333 8.66667H18.6667C21.3333 8.66667 22.6667 10 22.6667 12.6667Z" stroke="white" stroke-width="2" stroke-linecap="round" stroke-linejoin="round"/>
<path d="M25.3333 16H6.66666" stroke="white" stroke-width="2" stroke-linecap="round" stroke-linejoin="round"/>
</svg>
